<?xml version="1.0" encoding="UTF-8"?>
<!DOCTYPE svg PUBLIC "-//W3C//DTD SVG 1.1//EN" "http://www.w3.org/Graphics/SVG/1.1/DTD/svg11.dtd">
<!-- Creator: CorelDRAW X8 -->
<svg xmlns="http://www.w3.org/2000/svg" xml:space="preserve" width="297mm" height="210mm" version="1.1" style="shape-rendering:geometricPrecision; text-rendering:geometricPrecision; image-rendering:optimizeQuality; fill-rule:evenodd; clip-rule:evenodd"
viewBox="0 0 29700 21000"
 xmlns:xlink="http://www.w3.org/1999/xlink">
 <defs>
  <style type="text/css">
   <![CDATA[
    .fil1 {fill:#03AFF7}
    .fil0 {fill:#DB2B2B}
    .fil2 {fill:#FF8F0F}
    .fil3 {fill:#FF9934}
   ]]>
  </style>
 </defs>
 <g id="Слой_x0020_1">
  <metadata id="CorelCorpID_0Corel-Layer"/>
  <path class="fil0" d="M8757 8481c147,54 340,147 478,213 80,38 152,73 227,109 65,31 164,75 219,113 25,22 47,28 75,43l287 162c22,14 51,27 73,40 311,179 601,384 897,585l563 438c1,1 4,3 5,4l114 91c1,2 4,4 5,5l380 335c22,22 35,36 57,56l403 394c21,21 33,36 54,58l191 207c12,13 18,19 30,31 22,22 36,33 55,58 80,103 68,77 128,147l394 475c46,57 134,201 187,238 22,17 -11,12 10,4 13,-28 -55,-220 -67,-260 -47,-164 -225,-661 -287,-795l-500 -1002c-15,-26 -33,-57 -44,-79l-375 -575c-95,-138 -203,-267 -306,-399l-217 -252c-19,-23 -35,-35 -55,-58 -8,-8 -7,-7 -15,-16l-9 -11c-1,-2 -3,-4 -4,-6l-145 -152c-20,-20 -36,-33 -57,-54l-45 -48c0,0 -13,-12 -16,-14l-241 -230c-41,-42 -81,-69 -127,-107 -121,-103 -243,-210 -372,-302 -4,-3 -17,-11 -19,-13 -35,-24 -103,-91 -143,-101l-257 -172c-83,-57 -169,-109 -255,-164l-529 -308c-78,-62 -589,-278 -679,-323 -161,-82 -564,-227 -737,-285 -39,-13 -76,-23 -110,-33 -114,-33 -217,-80 -332,-107 -144,-35 -303,-94 -449,-123 -156,-31 -306,-82 -469,-114l-245 -51c-174,-35 -295,-68 -473,-88l-122 -22c-32,-5 -30,-11 -54,-14l-160 -16c-116,-25 -250,-37 -376,-54l-257 -30c-27,-3 -81,-1 -122,-10 -50,-12 4,-13 -50,-12l-1414 -87c-384,0 -769,-15 -1155,-10 -58,0 -70,11 -132,11l-283 2c-25,1 -86,-2 -126,8 1,56 31,116 46,168l86 293c12,37 21,70 34,108 14,41 21,78 35,119 68,211 219,707 294,891 88,215 159,443 239,659 53,143 103,298 165,438l252 637c50,144 119,286 176,427 15,40 29,60 43,99 15,40 26,67 44,110 96,228 309,725 408,920l94 212c72,182 242,506 332,710 119,271 264,537 391,805l346 696c76,168 168,328 250,495l817 1574c19,36 29,59 48,95l569 1076c163,330 353,653 518,984l248 487c18,35 34,58 55,98 74,150 158,294 227,448l141 278c1,2 2,4 3,6 1,2 3,5 4,7 10,20 15,32 28,54l104 202c52,-14 144,-115 186,-152l567 -454c118,-74 227,-163 350,-232l557 -312c38,-26 76,-30 112,-51 2,-1 4,-3 6,-4l13 -8c2,-1 4,-2 6,-4l901 -365c303,-100 585,-195 896,-279l305 -84c93,-26 235,-52 310,-88 -24,-33 -58,-37 -101,-53 -36,-13 -76,-30 -118,-44 -177,-61 -337,-100 -521,-134 -9,-1 -27,-4 -35,-6l-56 -14c-492,-50 -874,-79 -1378,-6 -30,4 -49,5 -67,6l-176 36c-226,36 -662,167 -875,269 -111,54 -344,151 -441,213 -59,38 -267,171 -308,182 0,-51 -13,-65 -27,-105l-203 -615c-12,-38 -25,-68 -37,-106l-410 -1204c-10,-34 -26,-56 -40,-93l-753 -2118c-25,-68 -50,-138 -72,-204 -56,-170 -127,-331 -181,-503l-145 -396c-36,-101 -66,-213 -109,-310l-395 -1107c-13,-37 -22,-63 -36,-107 -11,-36 -22,-61 -36,-97l-72 -203c-14,-40 -20,-69 -35,-108 -66,-165 -108,-335 -174,-501 -16,-40 -21,-68 -35,-108 -23,-64 -47,-133 -71,-204l-68 -198c-62,-156 -160,-474 -206,-622 -19,-63 -94,-244 -97,-297 -8,-167 514,-271 673,-276 63,-3 150,-19 240,-18 92,0 184,0 276,0 82,-1 522,32 606,48 160,32 315,42 472,79 29,7 31,11 58,14l174 30c34,9 21,8 46,16l166 38c394,102 780,217 1161,362 67,25 133,62 198,71z"/>
  <path class="fil1" d="M19521 6955c-37,27 -226,42 -290,52 -567,92 -851,144 -1421,285 -170,43 -369,116 -533,137 -48,12 -68,24 -111,38 -34,11 -68,22 -107,36 -140,47 -169,46 -310,109 -42,18 -193,51 -285,102 -2,1 -5,3 -7,4 -64,35 -86,32 -140,54 -36,14 -72,27 -110,44l-405 187c-56,31 -80,29 -143,71 -46,30 35,-21 -13,8l-41 20c-42,17 -59,31 -97,46l-190 107c-22,11 -25,10 -48,23l-137 87c-96,55 -236,136 -319,203l-162 113c-2,1 -4,3 -6,5 -72,61 -69,40 -134,101 -30,28 -42,43 -77,66 -57,38 -106,91 -161,135 -37,30 -59,25 -72,81 91,21 20,-1 163,-11l823 -134c21,-3 33,-1 67,-7 33,-6 50,-9 87,-16l336 -50c47,-5 108,-11 166,-19 19,-3 54,-16 75,-16 54,-1 19,17 81,-1 150,-45 389,-47 527,-77 118,-26 169,-17 249,-27 39,-5 40,-20 82,-15 43,-5 70,-22 119,-27 256,-28 619,-73 852,-90l752 -55c42,-3 84,-7 126,-9 50,-3 95,-14 128,13 47,-30 871,-30 961,-16 62,9 168,14 229,16 70,2 248,7 313,35 43,20 35,1 88,13 174,39 348,80 484,201 21,19 12,8 29,32 88,122 32,161 -10,265l-83 172c-17,36 -28,47 -45,78 -28,55 -49,120 -79,176l-82 163c-57,110 -144,268 -182,365l-48 101c-5,10 -12,41 -50,103 -56,92 -94,198 -146,292 -32,57 -53,129 -79,167l-768 1561c-50,82 -78,169 -126,252 -38,65 -59,145 -97,209 -46,76 -77,173 -122,247 -35,59 -53,106 -83,172l-141 287c-8,18 -13,31 -22,50l-84 161c-27,44 -29,74 -62,122l-322 670c-13,23 -16,18 -28,43l-47 106c-45,74 -76,155 -115,233 -96,192 -182,393 -284,584 -16,29 -29,48 -42,80 -12,28 -6,17 -13,33 -1,2 -2,4 -3,6l-242 490c-11,18 -12,22 -20,41l-84 172c-14,29 -22,53 -38,85 -16,33 -29,41 -44,77l-122 257c-16,35 -27,39 -42,80 -16,45 -17,46 -39,84l-166 334c-46,77 -77,168 -121,247 -37,68 -200,379 -204,430 -69,-19 -118,-77 -179,-107l-97 -46c-33,-19 -68,-34 -101,-52 -192,-107 -398,-189 -602,-267 -38,-14 -57,-26 -104,-39l-340 -109c-41,-12 -80,-21 -112,-32l-463 -98c-143,-21 -243,-41 -382,-47 -40,-2 -81,-11 -129,-15 -229,-20 -571,-8 -802,24l-308 60c-43,13 -23,13 -59,23l693 318c24,12 36,21 71,31 59,18 112,53 169,77l35 15c50,24 89,42 142,63l460 234c33,17 38,23 64,39 21,13 38,20 61,31 29,13 36,20 66,36 25,14 46,21 68,35l879 592c1,1 4,3 5,4 3,2 9,8 11,10 119,104 321,255 427,370 37,41 67,59 106,98 33,34 63,70 94,100 26,26 23,19 50,52l171 187c2,1 4,4 5,5 1,2 3,4 5,6 67,80 170,228 249,281 7,-28 322,-500 364,-566 32,-50 69,-86 96,-139 4,-7 9,-18 14,-27 1,-2 6,-10 8,-12l648 -997c14,-18 22,-31 33,-48l91 -145c67,-84 203,-326 271,-433 1,-2 3,-5 4,-7 27,-39 -19,26 9,-11l46 -76c20,-35 42,-56 63,-90 12,-20 18,-35 29,-53l185 -285c36,-48 57,-105 88,-157l269 -426c44,-59 74,-132 119,-188l64 -100c9,-15 19,-34 28,-52l206 -336c5,-8 9,-17 15,-26l226 -366c37,-66 83,-125 115,-193l23 -38c1,-1 3,-3 4,-5l208 -344c12,-25 17,-29 31,-51 15,-22 13,-23 25,-47l118 -198c11,-19 23,-33 33,-49l351 -589c33,-62 59,-117 102,-174l842 -1456c4,-6 11,-15 18,-23 44,-55 90,-155 125,-222l86 -150c0,-1 14,-23 15,-25 11,-17 1,1 17,-24l53 -100c64,-95 106,-205 170,-300l104 -182c42,-75 108,-175 140,-249 8,-20 -1,-5 12,-28 3,-6 13,-20 17,-25 29,-39 35,-57 59,-104l720 -1302c30,-76 78,-128 113,-204l331 -609c19,-42 36,-70 55,-108l193 -349c11,-28 9,-32 24,-58 12,-21 17,-25 27,-44l233 -451c32,-74 79,-129 113,-204 8,-17 11,-34 13,-52l0 -99 -542 -87c-23,-3 -26,0 -61,-4l-126 -17c-37,-7 -32,-9 -68,-13 -296,-33 -572,-74 -879,-83 -36,-1 -47,-6 -70,-5l-215 -16c-28,0 -53,1 -81,-1l-62 0c-118,-1 -312,-35 -434,-23 -193,19 -449,5 -649,4l-582 32c-94,7 -208,13 -306,20l-443 49c-31,3 -55,-3 -67,-2 -35,3 -24,11 -67,14z"/>
  <path class="fil2" d="M9504 7169l529 308c86,55 172,107 255,164l257 172c33,-63 126,-148 172,-206 16,-20 28,-28 45,-47l317 -347c22,-23 22,-29 41,-51l238 -243c1,-1 3,-4 4,-5l177 -181c88,-73 166,-161 251,-239 2,-2 4,-4 5,-5l289 -264c20,-17 28,-28 47,-44l731 -597 440 -316c38,-27 72,-44 111,-73 119,-90 252,-166 382,-241l457 -259c40,-21 81,-41 123,-60l253 -125c136,-57 259,-121 401,-172l707 -242c26,-8 43,-16 69,-24l228 -57c28,-8 44,-13 74,-19 38,-8 56,-6 74,-10l143 -38c179,-45 533,-71 641,-94 91,-20 431,-36 537,-36 275,0 543,-2 817,32 40,5 49,14 81,15 27,1 33,-1 73,3 41,5 56,11 91,12 -47,98 -88,228 -120,329 -40,125 -105,332 -156,447l-509 1462c-26,73 -51,143 -79,218l-351 1017c-24,70 -11,49 -72,76 164,-21 363,-94 533,-137 570,-141 854,-193 1421,-285 64,-10 253,-25 290,-52 16,-42 25,-41 41,-86 55,-151 129,-294 190,-443l830 -1887c9,-19 12,-31 20,-52l622 -1411c36,-132 118,-274 172,-400l365 -841c13,-35 23,-49 38,-84 16,-39 23,-55 39,-94l116 -262c17,-36 32,-54 33,-100l-993 -161c-183,-20 -357,-38 -540,-53 -53,-4 -166,-8 -310,-11l-1054 0c-106,3 -190,7 -238,12l-721 77c-21,4 -30,8 -56,14l-1086 222c-41,11 -72,19 -113,31 -32,9 -23,4 -49,10 -12,2 -6,0 -24,8 -25,11 -7,5 -28,12l-338 103c-3,1 -19,5 -19,6l-376 129c-14,6 -12,6 -30,11l-266 102c-19,8 -39,13 -61,21l-151 63c-2,1 -30,10 -31,10l-883 425c-28,15 -4,1 -25,16 -26,19 -14,13 -44,27 -25,12 -31,16 -53,29 -29,17 -64,38 -92,51 -22,11 -25,10 -47,24 -104,67 -221,118 -321,190l-182 115c-122,85 -255,158 -375,248 -11,9 -14,10 -24,17l-539 390c-2,2 -9,7 -12,9 -1,1 -4,3 -6,4 -1,2 -4,4 -5,5 -4,3 -7,6 -17,13 -11,9 -15,11 -24,17l-840 713c-15,14 -22,22 -36,36l-33 29c-1,1 -3,3 -5,4l-601 595c-26,26 -46,45 -71,71l-152 165c-2,2 -4,4 -6,5l-202 227c-88,105 -184,204 -267,315 -26,36 -42,46 -67,76 -24,30 -41,55 -67,87l-962 1325c-22,35 1,28 -41,40z"/>
  <path class="fil2" d="M16858 8696l21 6 -425 1230c-6,15 -16,34 -19,42l-346 1002c-59,150 -96,308 -156,458 -73,182 -124,369 -193,552l-223 635c-76,193 -209,605 -287,827 -44,125 -88,243 -127,363l-161 452c-31,80 -65,217 -96,282 -52,-4 -129,-49 -174,-71 -22,-11 -35,-13 -59,-23 -28,-12 -18,-10 -59,-23l-243 -94c-35,-15 -17,-5 -50,-12 -41,-9 -83,-30 -121,-42l-184 -61c-157,-39 -313,-91 -469,-119 -15,-2 -5,0 -29,-6 -116,-28 -362,-71 -482,-80 -121,-8 -190,-26 -306,-31 -41,-2 -110,-15 -146,-18 -46,-3 -25,5 -65,3 -21,-2 -46,-6 -75,-6 -270,-1 -529,-5 -787,32l-286 40c-99,10 -181,47 -276,62 -143,21 -285,83 -420,130 -40,14 -40,7 -50,43l682 197c261,86 527,161 787,255l610 227c128,61 268,100 393,169l582 297c31,15 41,22 70,42l136 79c26,16 43,27 69,44 49,30 88,57 138,86l202 135c31,24 30,23 66,46l41 31c6,5 12,9 18,13l506 403c2,1 4,3 6,4l82 72c1,1 4,3 5,4 2,2 4,4 6,5 2,2 9,7 11,9l232 218c23,25 31,36 58,54 42,-28 115,-238 146,-302l1360 -3115c12,-24 22,-41 31,-62l186 -436c18,-44 37,-80 58,-127l503 -1141c11,-27 14,-44 24,-67l31 -62c18,-47 34,-83 54,-130l225 -510c71,-164 275,-651 336,-768 42,-80 71,-175 110,-257l84 -193c8,-22 18,-40 29,-62l393 -899c-33,-27 -78,-16 -128,-13 -42,2 -84,6 -126,9l-752 55c-233,17 -596,62 -852,90 -49,5 -76,22 -119,27z"/>
  <path class="fil1" d="M7470 5974l41 0 -28 -973c-5,-37 -1,-72 -4,-108 -13,-120 -40,-247 -50,-370 -4,-50 -5,-43 -14,-87l-41 -266c-18,-108 -94,-384 -120,-514l-45 -169c-40,-171 -178,-518 -209,-649 58,13 136,12 201,23 58,10 142,29 196,31 90,4 483,82 574,108l625 154c124,39 309,109 418,137l161 59c107,35 272,90 365,145 41,24 88,31 135,49l160 75c73,44 159,60 235,103l82 40c30,11 52,21 78,35l114 59c60,40 142,61 204,92 40,20 24,27 67,46l319 151c27,13 54,18 80,31 26,14 47,29 79,45 75,37 101,36 42,-42l-210 -261c-22,-24 -30,-35 -50,-62 -11,-14 -17,-19 -28,-33 -14,-16 -15,-17 -29,-32 -31,-33 -25,-30 -49,-64 -61,-88 -153,-156 -221,-239 -17,-20 -9,-16 -27,-34l-57 -55c-65,-75 -103,-93 -150,-147 -73,-86 -270,-249 -371,-323 -38,-29 -32,-35 -62,-61 -40,-35 -89,-56 -130,-94 -44,-40 -89,-65 -138,-98l-313 -208c-15,-8 -20,-11 -39,-22l-139 -85c-38,-18 -47,-18 -83,-40l-339 -172c-80,-57 -184,-63 -261,-124l-48 -16c-83,-20 -283,-107 -389,-143 -13,-4 -19,-7 -38,-14l-117 -34c-77,-26 -70,-33 -175,-61 -39,-10 -57,-21 -91,-32 -60,-19 -127,-24 -187,-47l-88 -25c-92,-17 -185,-54 -278,-69 -101,-16 -261,-66 -380,-90l-588 -107c-58,-7 -44,-15 -92,-20l-878 -113c7,86 207,420 264,553 13,32 8,15 23,38 86,132 194,393 282,546l54 110c49,76 214,442 282,555l72 142c9,16 3,4 11,21l164 316c16,26 21,48 34,77l42 81c1,2 3,5 4,7l29 52c16,28 23,51 36,77l414 812c16,32 22,46 37,75l603 1174c13,23 21,51 29,84z"/>
  <path class="fil3" d="M9681 8916c-55,-38 -154,-82 -219,-113 -75,-36 -147,-71 -227,-109 -138,-66 -331,-159 -478,-213 -4,55 -9,38 -35,93l-79 166c-20,36 -26,48 -43,90 -14,34 -25,51 -40,83l-194 439c-117,271 -207,555 -299,836 -12,37 -22,66 -31,101l-102 408c-9,36 -18,72 -22,102l-52 336c-10,86 -12,147 -12,243l31 245c7,-29 30,-60 47,-86l647 -1048c20,-29 34,-55 55,-88l166 -253c14,-20 18,-23 30,-41 13,-20 15,-25 28,-44l344 -503c39,-55 74,-107 114,-162l301 -415c45,-61 33,-63 70,-67z"/>
 </g>
</svg>
